<svg width="129" height="129" viewBox="0 0 129 129" fill="none" xmlns="http://www.w3.org/2000/svg">
<path d="M32.25 91.375C32.25 80.625 53.75 74.7125 64.5 74.7125C75.25 74.7125 96.75 80.625 96.75 91.375V96.75H32.25M80.625 48.375C80.625 52.6516 78.9261 56.7531 75.9021 59.7771C72.8781 62.8011 68.7766 64.5 64.5 64.5C60.2234 64.5 56.1219 62.8011 53.0979 59.7771C50.0739 56.7531 48.375 52.6516 48.375 48.375C48.375 44.0984 50.0739 39.9969 53.0979 36.9729C56.1219 33.9489 60.2234 32.25 64.5 32.25C68.7766 32.25 72.8781 33.9489 75.9021 36.9729C78.9261 39.9969 80.625 44.0984 80.625 48.375ZM16.125 26.875V102.125C16.125 104.976 17.2576 107.71 19.2736 109.726C21.2896 111.742 24.0239 112.875 26.875 112.875H102.125C104.976 112.875 107.71 111.742 109.726 109.726C111.742 107.71 112.875 104.976 112.875 102.125V26.875C112.875 24.0239 111.742 21.2896 109.726 19.2736C107.71 17.2576 104.976 16.125 102.125 16.125H26.875C24.0239 16.125 21.2896 17.2576 19.2736 19.2736C17.2576 21.2896 16.125 24.0239 16.125 26.875Z" fill="#797EFB"/>
</svg>
